<?xml version="1.0" encoding="iso-8859-1"?>
<!-- Uploaded to: SVG Repo, www.svgrepo.com, Generator: SVG Repo Mixer Tools -->
<svg height="800px" width="800px" version="1.1" id="Layer_1" xmlns="http://www.w3.org/2000/svg" xmlns:xlink="http://www.w3.org/1999/xlink" 
	 viewBox="0 0 512.001 512.001" xml:space="preserve">
<g>
	<path style="fill:#FF90C2;" d="M355.477,385.843H73.686c-10.221,0-18.507-8.286-18.507-18.507c0-10.221,8.286-18.507,18.507-18.507
		h281.792c65.898,0,119.51-53.613,119.51-119.511s-53.611-119.511-119.51-119.511h-81.423c-10.221,0-18.507-8.286-18.507-18.507
		s8.286-18.507,18.507-18.507h81.423c86.308,0,156.523,70.217,156.523,156.524S441.785,385.843,355.477,385.843z"/>
	<path style="fill:#FF90C2;" d="M131.049,320.246v94.183c0,19.045-20.662,30.941-37.126,21.434l-81.565-47.091
		c-16.492-9.521-16.465-33.363,0-42.869l81.565-47.092C110.414,289.289,131.049,301.233,131.049,320.246z"/>
</g>
<g>
	<path style="fill:#FF52A0;" d="M191.681,109.809h-60.633c-10.221,0-18.507-8.286-18.507-18.507s8.286-18.507,18.507-18.507h60.633
		c10.221,0,18.507,8.286,18.507,18.507S201.903,109.809,191.681,109.809z"/>
	<path style="fill:#FF52A0;" d="M355.477,72.796h-81.423c-10.221,0-18.507,8.286-18.507,18.507s8.286,18.507,18.507,18.507h81.423
		c65.898,0,119.51,53.613,119.51,119.511s-53.611,119.511-119.51,119.511H246.738v37.013h108.739
		C441.785,385.845,512,315.628,512,229.32S441.785,72.796,355.477,72.796z"/>
</g>
</svg>